<svg width="59" height="39" viewBox="0 0 59 39" fill="none" xmlns="http://www.w3.org/2000/svg">
<path d="M28.0263 38.9999C23.2111 38.9999 18.5322 38.4555 14.4959 37.4251C12.7227 36.9725 11.4854 35.4794 11.4854 33.7926V21.3471C11.4854 19.6619 12.7227 18.1672 14.4959 17.7113C15.7057 17.404 16.9781 17.1384 18.2763 16.923C18.5267 16.8812 18.7661 17.0315 18.8121 17.2587C18.8582 17.4858 18.6924 17.7029 18.442 17.7447C17.1696 17.9568 15.9267 18.2156 14.7445 18.5162C13.3672 18.8703 12.406 20.0344 12.406 21.3471V33.7926C12.406 35.107 13.3691 36.271 14.7464 36.6217C18.7016 37.6321 23.294 38.1649 28.0263 38.1649C32.7585 38.1649 37.3546 37.6305 41.3098 36.6217C42.6872 36.271 43.6502 35.107 43.6502 33.7926V21.3471C43.6502 20.0327 42.6872 18.8686 41.3098 18.5146C40.6525 18.3492 40.0522 18.2106 39.4777 18.0937C39.2291 18.0436 39.0744 17.8198 39.1297 17.5944C39.1849 17.3689 39.4316 17.2286 39.6802 17.2787C40.2695 17.399 40.8845 17.5392 41.5584 17.7096C43.3335 18.1655 44.5709 19.6603 44.5709 21.3454V33.7909C44.5709 35.4777 43.3316 36.9725 41.5602 37.4234C37.5258 38.4538 32.8451 38.9983 28.0281 38.9983L28.0263 38.9999Z" fill="#282315"/>
<path d="M28.0286 35.3724C24.2225 35.3724 20.4643 35.0034 17.1627 34.3036C16.1739 34.0948 15.4834 33.3015 15.4834 32.3746V29.6724C15.4834 29.4419 15.6896 29.2549 15.9437 29.2549C16.1978 29.2549 16.4041 29.4419 16.4041 29.6724V32.3746C16.4041 32.9107 16.8018 33.37 17.3708 33.4902C20.6042 34.175 24.2906 34.5374 28.0267 34.5374C32.3005 34.5374 36.4362 34.0714 39.9901 33.1896C40.235 33.1278 40.489 33.2598 40.5553 33.4819C40.6216 33.704 40.478 33.9345 40.2331 33.9946C36.6019 34.8948 32.3815 35.3708 28.0267 35.3708L28.0286 35.3724Z" fill="#282315"/>
<path d="M28.4453 23.6221C24.4503 23.6221 21.2002 20.4522 21.2002 16.5559C21.2002 12.6596 24.4503 9.48975 28.4453 9.48975C32.4403 9.48975 35.6904 12.6596 35.6904 16.5559C35.6904 20.4522 32.4403 23.6221 28.4453 23.6221ZM28.4453 10.3248C24.9229 10.3248 22.0564 13.1205 22.0564 16.5559C22.0564 19.9913 24.9229 22.787 28.4453 22.787C31.9677 22.787 34.8342 19.9913 34.8342 16.5559C34.8342 13.1205 31.9677 10.3248 28.4453 10.3248Z" fill="#282315"/>
<path d="M28.9902 20.6007C26.5319 20.6007 24.5322 18.787 24.5322 16.5557C24.5322 16.3252 24.7385 16.1382 24.9926 16.1382C25.2467 16.1382 25.4529 16.3252 25.4529 16.5557C25.4529 18.326 27.0402 19.7656 28.9902 19.7656C29.2443 19.7656 29.4505 19.9527 29.4505 20.1832C29.4505 20.4136 29.2443 20.6007 28.9902 20.6007Z" fill="#282315"/>
<path d="M43.625 15.6887C40.3773 15.6887 37.7354 13.0951 37.7354 9.90687C37.7354 6.71866 40.3773 4.125 43.625 4.125C46.8726 4.125 49.5146 6.71866 49.5146 9.90687C49.5146 13.0951 46.8726 15.6887 43.625 15.6887ZM43.625 4.96005C40.8469 4.96005 38.586 7.1796 38.586 9.90687C38.586 12.6341 40.8469 14.8537 43.625 14.8537C46.4031 14.8537 48.664 12.6341 48.664 9.90687C48.664 7.1796 46.4031 4.96005 43.625 4.96005Z" fill="#282315"/>
<path d="M44.1113 12.6658C42.4338 12.6658 41.0693 11.4282 41.0693 9.90678C41.0693 9.67631 41.2756 9.48926 41.5297 9.48926C41.7838 9.48926 41.99 9.67631 41.99 9.90678C41.99 10.969 42.942 11.8307 44.1113 11.8307C44.3654 11.8307 44.5716 12.0178 44.5716 12.2483C44.5716 12.4787 44.3654 12.6658 44.1113 12.6658Z" fill="#282315"/>
<path d="M31.1738 7.52211C29.0911 7.52211 27.3975 5.83531 27.3975 3.76105C27.3975 1.6868 29.0911 0 31.1738 0C33.2565 0 34.9502 1.6868 34.9502 3.76105C34.9502 5.83531 33.2565 7.52211 31.1738 7.52211ZM31.1738 0.836719C29.5539 0.836719 28.2359 2.14942 28.2359 3.76273C28.2359 5.37604 29.5539 6.68872 31.1738 6.68872C32.7937 6.68872 34.1117 5.37604 34.1117 3.76273C34.1117 2.14942 32.7937 0.836719 31.1738 0.836719Z" fill="#282315"/>
</svg>
