<svg width="50" height="50" viewBox="0 0 50 50" fill="none" xmlns="http://www.w3.org/2000/svg">
<path d="M24.5016 14.1065C26.4949 14.1065 28.1258 15.6966 28.1258 17.6401C28.1258 19.5835 26.4949 21.1736 24.5016 21.1736C22.5083 21.1736 20.8775 19.5835 20.8775 17.6401C20.8775 15.6966 22.5083 14.1065 24.5016 14.1065ZM24.5016 13.5176C22.1459 13.5176 20.2734 15.3432 20.2734 17.6401C20.2734 19.9369 22.1459 21.7625 24.5016 21.7625C26.8573 21.7625 28.7298 19.9369 28.7298 17.6401C28.7298 15.3432 26.8573 13.5176 24.5016 13.5176Z" fill="#A38B51"/>
<path d="M33.198 33.4821C33.0289 33.4821 32.896 33.3525 32.896 33.1876C32.896 28.6411 29.755 23.9415 24.5 23.9415C19.245 23.9415 16.104 28.6411 16.104 33.1876C16.104 33.3525 15.9711 33.4821 15.802 33.4821C15.6329 33.4821 15.5 33.3525 15.5 33.1876C15.5 28.3525 18.8644 23.3525 24.5 23.3525C30.1356 23.3525 33.5 28.3525 33.5 33.1876C33.5 33.3525 33.3671 33.4821 33.198 33.4821Z" fill="#A38B51"/>
<circle cx="24.5" cy="24.5" r="16.2" stroke="#A38B51" stroke-width="0.6"/>
</svg>
