<svg width="50" height="50" viewBox="0 0 50 50" fill="none" xmlns="http://www.w3.org/2000/svg">
<path d="M32.0839 36.0644H17.0737C16.6912 36.0644 16.3205 35.8971 16.0635 35.6161C15.8064 35.3292 15.6809 34.9466 15.7228 34.564L17.2232 20.3011C17.3009 19.5598 17.9226 19.0039 18.6638 19.0039H20.756C20.8875 19.0039 21.0011 19.1115 21.0011 19.249C21.0011 19.3865 20.8935 19.4941 20.756 19.4941H18.6638C18.1677 19.4941 17.7552 19.8647 17.7074 20.3549L16.207 34.6178C16.183 34.8629 16.2608 35.108 16.4222 35.2933C16.5895 35.4786 16.8227 35.5802 17.0678 35.5802H32.0779C32.323 35.5802 32.5621 35.4726 32.7235 35.2933C32.8909 35.108 32.9686 34.8689 32.9387 34.6178L31.4383 20.3549C31.3845 19.8647 30.978 19.4941 30.4818 19.4941H29.9558C29.8243 19.4941 29.7107 19.3865 29.7107 19.249C29.7107 19.1115 29.8183 19.0039 29.9558 19.0039H30.4818C31.2231 19.0039 31.8448 19.5598 31.9225 20.3011L33.4229 34.564C33.4647 34.9466 33.3392 35.3292 33.0822 35.6161C32.8251 35.903 32.4605 36.0644 32.0719 36.0644H32.0839Z" fill="#A38B51"/>
<path d="M28.3964 19.4941H22.3349C22.2034 19.4941 22.0898 19.3865 22.0898 19.249C22.0898 19.1115 22.1974 19.0039 22.3349 19.0039H28.3964C28.5279 19.0039 28.6415 19.1115 28.6415 19.249C28.6415 19.3865 28.5339 19.4941 28.3964 19.4941Z" fill="#A38B51"/>
<path d="M28.3964 21.0483C28.2649 21.0483 28.1513 20.9407 28.1513 20.8033V16.9954C28.1513 15.0228 26.5493 13.4207 24.5766 13.4207C22.6039 13.4207 21.0019 15.0228 21.0019 16.9954V20.8033C21.0019 20.9348 20.8943 21.0483 20.7568 21.0483C20.6193 21.0483 20.5117 20.9407 20.5117 20.8033V16.9954C20.5117 14.7538 22.3349 12.9365 24.5706 12.9365C26.8063 12.9365 28.6295 14.7597 28.6295 16.9954V20.8033C28.6295 20.9348 28.5219 21.0483 28.3844 21.0483H28.3964Z" fill="#A38B51"/>
<circle cx="24.5" cy="24.5" r="16.2" stroke="#A38B51" stroke-width="0.6"/>
</svg>
