<svg width="58" height="39" viewBox="0 0 58 39" fill="none" xmlns="http://www.w3.org/2000/svg">
<path d="M18.6405 12.7435C18.5809 12.7435 18.5197 12.7295 18.4633 12.6982C18.2637 12.592 18.1815 12.3309 18.2798 12.1151C18.932 10.6843 19.9031 9.73745 21.1688 9.30056C23.7632 8.40589 26.7521 9.96546 27.6072 10.465C29.6766 11.6747 34.1567 11.6765 35.8686 9.20308C36.603 8.14132 36.6931 6.55738 36.1037 5.07092C35.3694 3.21718 33.8234 1.96918 31.9714 1.73072C29.0824 1.35823 26.3398 1.98484 23.8179 3.59663C23.6263 3.71847 23.3799 3.65059 23.2672 3.44346C23.1545 3.23633 23.2173 2.97002 23.4089 2.84817C26.087 1.13717 29.0002 0.472269 32.068 0.867384C34.2099 1.14414 35.9958 2.58709 36.8445 4.72976C37.5467 6.50168 37.421 8.41634 36.5144 9.72526C35.6093 11.0342 34.0086 11.8714 32.0053 12.0855C30.2741 12.27 28.443 11.9428 27.2256 11.2326C26.4413 10.7748 23.7068 9.34233 21.4152 10.1326C20.3669 10.4946 19.5552 11.2918 19.0028 12.5015C18.932 12.6547 18.7903 12.7452 18.6421 12.7452L18.6405 12.7435Z" fill="#282315"/>
<path d="M14.1935 9.56142C14.1178 9.56142 14.0421 9.5388 13.9745 9.4918C13.7877 9.36126 13.7345 9.09147 13.8569 8.88956C14.2112 8.30124 14.6251 7.74599 15.0872 7.23599C16.126 6.09242 17.2581 5.1612 18.453 4.47019C18.6495 4.35705 18.8926 4.43538 18.9973 4.64773C19.102 4.86008 19.0295 5.12291 18.833 5.23605C17.7106 5.88703 16.6445 6.76429 15.6622 7.8452C15.237 8.31342 14.857 8.82341 14.5333 9.363C14.456 9.4918 14.3271 9.56142 14.1951 9.56142H14.1935Z" fill="#282315"/>
<path d="M14.5181 29.4511C14.3973 29.4511 14.2765 29.392 14.1976 29.2806C11.5711 25.5592 9.90269 21.2234 9.5017 17.0755C9.04274 12.3254 10.2795 8.18631 13.0784 5.1072C15.3974 2.55549 18.1238 0.881033 20.9645 0.264863C23.4446 -0.27298 25.9391 0.0142201 27.9892 1.0725C28.1905 1.17694 28.2742 1.43628 28.1792 1.65212C28.0825 1.86969 27.8426 1.9602 27.6429 1.85751C25.7474 0.879292 23.4333 0.616462 21.1224 1.11775C18.441 1.69911 15.858 3.28828 13.6533 5.7164C11.0284 8.60579 9.87048 12.5012 10.3037 16.985C10.6902 20.9762 12.3006 25.1554 14.8386 28.7532C14.9738 28.9446 14.94 29.2179 14.7629 29.3624C14.6904 29.4233 14.6034 29.4511 14.5197 29.4511H14.5181Z" fill="#282315"/>
<path d="M16.941 38.4153C16.8846 38.4153 16.8298 38.4136 16.7751 38.4101C16.6221 38.3996 16.4885 38.297 16.4289 38.1455C16.3693 37.9941 16.395 37.8183 16.4933 37.693C16.672 37.4684 17.2276 36.579 17.4321 35.4929C17.6963 34.0934 17.3098 32.8733 16.2823 31.8637C16.1181 31.7018 16.1052 31.4268 16.2549 31.2493C16.4047 31.0717 16.6592 31.0578 16.8234 31.2197C18.9975 33.3571 18.3485 35.9994 17.6077 37.451C19.9863 36.8366 23.9076 33.3241 25.5067 30.1875C25.6146 29.9769 25.8594 29.9003 26.0543 30.0169C26.2491 30.1336 26.32 30.3981 26.2121 30.6087C24.4326 34.0986 19.6883 38.4171 16.9377 38.4171L16.941 38.4153Z" fill="#282315"/>
<path d="M33.3696 30.0135C33.1844 30.0135 33.0185 29.8743 32.9766 29.6707C32.669 28.1511 31.8075 25.629 30.801 25.3261C30.4386 25.2182 30.028 25.4201 29.5819 25.9301C27.8362 27.9248 26.4029 28.1929 25.5076 28.0676C24.6911 27.9527 23.989 27.4531 23.6266 26.7343C22.4977 24.4872 22.1193 24.1617 22.0291 24.1164C21.9341 24.0851 21.5782 24.1495 21.3656 24.1878C20.8003 24.2887 20.2158 24.3932 19.9758 23.918C19.8712 23.7091 19.8808 23.4393 19.8969 22.992C19.9259 22.1826 19.971 20.959 19.2495 20.3358C17.8388 19.1157 17.251 16.1967 17.5441 14.8251C17.594 14.5901 17.8098 14.4439 18.0272 14.4996C18.2446 14.5536 18.3783 14.7868 18.3284 15.0218C18.0917 16.1306 18.6472 18.7014 19.752 19.657C20.7907 20.5552 20.7343 22.1025 20.7005 23.0268C20.6957 23.1521 20.6908 23.2983 20.6908 23.4062C20.839 23.401 21.0758 23.3575 21.2336 23.3297C21.6378 23.2566 22.0178 23.1887 22.3045 23.3001C22.6845 23.4463 23.1757 24.0172 24.3336 26.3217C24.5172 26.689 24.9504 27.1137 25.6106 27.2077C26.6123 27.3487 27.8153 26.6838 28.9941 25.3348C29.6608 24.5724 30.3404 24.287 31.0136 24.4906C31.8107 24.7308 32.5176 25.6638 33.1151 27.2652C33.5354 28.3931 33.7496 29.4444 33.7593 29.4879C33.806 29.7229 33.6691 29.9544 33.4517 30.0048C33.4227 30.0118 33.3937 30.0153 33.3647 30.0153L33.3696 30.0135Z" fill="#282315"/>
<path d="M35.0703 38.9985C34.3955 38.9985 33.8641 38.7165 33.5629 38.5564C33.5549 38.5529 33.5485 38.5477 33.5404 38.5442C31.9171 37.5434 32.4953 35.3119 33.2666 33.6166C34.2973 31.3486 36.1299 29.3138 37.4682 27.8291C38.0833 27.145 38.8338 26.313 39.0158 25.9336C38.99 25.9301 38.9578 25.9266 38.9191 25.9249C36.6291 25.7961 33.5646 23.6726 33.4341 23.582C33.2473 23.4515 33.1942 23.1817 33.315 22.9798C33.4357 22.7779 33.6853 22.7205 33.8722 22.851C33.9028 22.8719 36.8868 24.9397 38.961 25.0563C39.4167 25.0824 39.7034 25.2513 39.8161 25.5611C40.0513 26.2103 39.3813 26.9553 38.0447 28.4366C36.7451 29.8795 34.964 31.8568 33.9897 34.0012C33.0943 35.9716 33.0734 37.244 33.9301 37.7836C34.4164 38.0412 34.9946 38.2866 35.7144 38.0046C36.8288 37.5642 37.9384 36.0047 39.0125 33.3642C40.2316 30.3704 41.8163 26.6438 43.3494 23.039C44.9243 19.3367 46.4124 15.8399 47.1403 13.974C48.3513 10.867 47.3464 10.3344 41.7712 7.38235L41.0304 6.98897C40.8307 6.8828 40.7485 6.62171 40.8468 6.40587C40.945 6.19004 41.1866 6.10127 41.3863 6.20745L42.1271 6.60082C47.7055 9.55635 49.39 10.4475 47.8843 14.3117C47.1515 16.1915 45.6619 19.6936 44.0837 23.4028C42.5522 27.0041 40.9676 30.7272 39.7517 33.714C38.5697 36.6191 37.341 38.2901 35.993 38.8209C35.6661 38.9497 35.3569 39.0002 35.0735 39.0002L35.0703 38.9985Z" fill="#282315"/>
<path d="M39.3817 22.8752C39.3221 22.8752 39.2609 22.8613 39.2046 22.8299L35.0883 20.6438C34.8887 20.5376 34.8065 20.2765 34.9048 20.0607C35.003 19.8448 35.2446 19.7561 35.4443 19.8622L39.5604 22.0484C39.7601 22.1546 39.8423 22.4157 39.7441 22.6315C39.6748 22.7847 39.5315 22.8752 39.3817 22.8752Z" fill="#282315"/>
<path d="M40.9696 19.3855C40.91 19.3855 40.8488 19.3715 40.7924 19.3402L36.6762 17.154C36.4765 17.0478 36.3944 16.7867 36.4927 16.5709C36.5909 16.3551 36.8324 16.2663 37.0321 16.3725L41.1483 18.5587C41.348 18.6648 41.4301 18.9259 41.3319 19.1418C41.2627 19.2949 41.1193 19.3855 40.9696 19.3855Z" fill="#282315"/>
<path d="M42.5555 15.8952C42.4959 15.8952 42.4347 15.8813 42.3784 15.85L38.2622 13.6638C38.0625 13.5576 37.9804 13.2965 38.0786 13.0807C38.1768 12.8648 38.4184 12.7761 38.6181 12.8823L42.7343 15.0684C42.934 15.1746 43.0161 15.4357 42.9179 15.6515C42.8486 15.8047 42.7053 15.8952 42.5555 15.8952Z" fill="#282315"/>
<path d="M44.1415 12.4055C44.0819 12.4055 44.0207 12.3916 43.9643 12.3602L39.8481 10.174C39.6484 10.0679 39.5663 9.80677 39.6645 9.59094C39.7628 9.3751 40.0043 9.28633 40.204 9.39251L44.3202 11.5787C44.5199 11.6849 44.6021 11.946 44.5038 12.1618C44.4346 12.315 44.2912 12.4055 44.1415 12.4055Z" fill="#282315"/>
</svg>
