<svg width="59" height="39" viewBox="0 0 59 39" fill="none" xmlns="http://www.w3.org/2000/svg">
<path d="M36.4219 12.6677C39.1082 12.6677 41.2938 14.8504 41.2939 17.533C41.2939 20.2156 39.1083 22.3982 36.4219 22.3982C33.7355 22.3982 31.5498 20.2156 31.5498 17.533C31.5499 14.8504 33.7355 12.6677 36.4219 12.6677ZM36.4219 13.1492C34.0015 13.1492 32.0314 15.1157 32.0312 17.533C32.0312 19.9503 34.0014 21.9177 36.4219 21.9177C38.8423 21.9177 40.8125 19.9503 40.8125 17.533C40.8124 15.1157 38.8423 13.1492 36.4219 13.1492Z" fill="#282315" stroke="#282315" stroke-width="0.1"/>
<path d="M36.4208 20.347C34.8678 20.347 33.6045 19.0854 33.6045 17.5333C33.6045 17.373 33.7348 17.2429 33.8953 17.2429C34.0559 17.2429 34.1861 17.373 34.1861 17.5333C34.1861 18.7648 35.1889 19.7662 36.4208 19.7662C36.5814 19.7662 36.7117 19.8963 36.7117 20.0566C36.7117 20.2169 36.5814 20.347 36.4208 20.347Z" fill="#282315"/>
<path d="M45.9727 8.93604C48.1657 8.93604 49.95 10.7179 49.9502 12.9077C49.9502 15.0978 48.1658 16.8804 45.9727 16.8804C43.7795 16.8804 41.9951 15.0978 41.9951 12.9077C41.9953 10.7178 43.7796 8.93604 45.9727 8.93604ZM45.9727 9.41748C44.0456 9.41748 42.4768 10.9831 42.4766 12.9077C42.4766 14.8325 44.0454 16.3989 45.9727 16.3989C47.8999 16.3989 49.4688 14.8325 49.4688 12.9077C49.4685 10.9831 47.8997 9.41748 45.9727 9.41748Z" fill="#282315" stroke="#282315" stroke-width="0.1"/>
<path d="M45.9735 14.8278C44.9138 14.8278 44.0518 13.9669 44.0518 12.9086C44.0518 12.7483 44.182 12.6182 44.3426 12.6182C44.5031 12.6182 44.6334 12.7483 44.6334 12.9086C44.6334 13.6474 45.2348 14.2469 45.9735 14.2469C46.1341 14.2469 46.2644 14.377 46.2644 14.5373C46.2644 14.6976 46.1341 14.8278 45.9735 14.8278Z" fill="#282315"/>
<path d="M38.0361 6.06689C39.4532 6.06709 40.6055 7.21825 40.6055 8.6333C40.6055 10.0483 39.4532 11.1995 38.0361 11.1997C36.6189 11.1997 35.4658 10.0485 35.4658 8.6333C35.4658 7.21813 36.6189 6.06689 38.0361 6.06689ZM38.0361 6.54932C36.8849 6.54932 35.9474 7.48446 35.9473 8.63428C35.9473 9.78418 36.8848 10.7202 38.0361 10.7202C39.1873 10.72 40.124 9.78406 40.124 8.63428C40.1239 7.48458 39.1872 6.54951 38.0361 6.54932Z" fill="#282315" stroke="#282315" stroke-width="0.1"/>
<path d="M30.2987 36.9825C30.1482 36.9825 29.9977 36.9825 29.8472 36.9796L23.6368 36.8813C21.4344 36.8553 18.0572 35.7961 15.0764 34.8612C13.8739 34.4841 12.7366 34.1271 11.8655 33.9032C11.6716 33.854 11.5559 33.6561 11.6051 33.4639C11.6543 33.2703 11.8525 33.1546 12.0449 33.2038C12.9348 33.4321 14.0809 33.7919 15.2934 34.1719C18.0818 35.0462 21.5502 36.1343 23.6469 36.1588L29.8574 36.2571C34.686 36.3135 39.4075 35.4623 43.8859 33.7298L49.4554 31.581C49.9502 31.3888 50.3337 31.0218 50.5363 30.5464C50.7302 30.0912 50.7331 29.5869 50.5421 29.1288C50.2642 28.4612 49.5972 28.0003 48.8418 27.9526C48.7232 27.9468 48.619 27.9482 48.5177 27.9584L36.1112 29.1519C35.913 29.1722 35.735 29.0262 35.7162 28.8268C35.6974 28.6288 35.8421 28.4511 36.0418 28.4323L48.4468 27.2387C48.5843 27.2257 48.7218 27.2229 48.8824 27.2315C49.9141 27.2965 50.8257 27.9324 51.2091 28.8514C51.4754 29.4901 51.4725 30.1923 51.2004 30.8296C50.9212 31.4842 50.393 31.99 49.7158 32.2544L44.1449 34.4046C39.72 36.1155 35.0636 36.9825 30.2973 36.9825H30.2987Z" fill="#282315"/>
<path d="M27.3108 30.399C27.1791 30.399 27.0532 30.3267 26.9881 30.2025C26.8969 30.0247 26.9664 29.8065 27.1444 29.7155L33.7094 26.3472C34.2086 26.0625 34.537 25.6694 34.634 25.2388C34.7237 24.8429 34.621 24.4181 34.3359 24.0106C33.9944 23.5236 33.4315 23.2115 32.8296 23.1739C32.64 23.1623 32.4418 23.1797 32.2551 23.2245C32.2435 23.2274 32.2334 23.2288 32.2218 23.2303C28.7129 23.7158 26.541 24.3733 24.4399 25.0076C22.1436 25.7012 19.9745 26.3573 16.3093 26.7373C16.3035 26.7373 16.2992 26.7373 16.2934 26.7373L12.5862 26.9599C12.3865 26.9729 12.2158 26.8197 12.2028 26.6203C12.1912 26.4209 12.3431 26.2503 12.5428 26.2373L16.2428 26.0163C19.8342 25.6434 21.9699 24.999 24.2301 24.3155C26.3543 23.6739 28.5508 23.0106 32.1061 22.5164C32.355 22.4601 32.6198 22.4384 32.873 22.4528C33.6934 22.502 34.4618 22.9297 34.9292 23.5958C35.3343 24.1753 35.4761 24.7981 35.3401 25.3978C35.1969 26.0307 34.7425 26.5914 34.061 26.9786C34.0566 26.9815 34.0523 26.983 34.0479 26.9859L27.4757 30.3571C27.4222 30.3845 27.3658 30.3975 27.3108 30.3975V30.399Z" fill="#282315"/>
</svg>
