<svg width="34" height="26" viewBox="0 0 34 26" fill="none" xmlns="http://www.w3.org/2000/svg">
<g id="Group">
<path id="Vector" d="M29.7408 25.9999H4.25828C2.07834 25.9999 0.302734 24.4235 0.302734 22.4839V3.6408C0.302734 1.70112 2.07834 0.124756 4.25828 0.124756H29.7408C31.9208 0.124756 33.6964 1.70112 33.6964 3.6408V22.4839C33.6964 24.4235 31.9208 25.9999 29.7408 25.9999ZM4.25828 0.904146C2.56179 0.904146 1.18175 2.13183 1.18175 3.6408V22.4839C1.18175 23.9928 2.56179 25.2205 4.25828 25.2205H29.7408C31.4373 25.2205 32.8173 23.9928 32.8173 22.4839V3.6408C32.8173 2.13183 31.4373 0.904146 29.7408 0.904146H4.25828Z" fill="#282315"/>
<path id="Vector_2" d="M3.55549 21.5343C3.44415 21.5343 3.32986 21.4962 3.24489 21.42C3.07202 21.2677 3.07202 21.0186 3.24489 20.8662L10.3473 14.552C10.5202 14.3997 10.7985 14.3997 10.9685 14.552C11.1413 14.7044 11.1413 14.9534 10.9685 15.1058L3.86605 21.42C3.78108 21.4962 3.66683 21.5343 3.55549 21.5343Z" fill="#282315"/>
<path id="Vector_3" d="M30.444 21.5343C30.3327 21.5343 30.2184 21.4962 30.1334 21.42L23.034 15.1058C22.8611 14.9534 22.8611 14.7044 23.034 14.552C23.2068 14.3997 23.4852 14.3997 23.6551 14.552L30.7546 20.8662C30.9275 21.0186 30.9275 21.2677 30.7546 21.42C30.6696 21.4962 30.5554 21.5343 30.444 21.5343Z" fill="#282315"/>
<path id="Vector_4" d="M17.0005 16.0788C15.9808 16.0788 15.0227 15.7272 14.3077 15.0884L3.24684 5.25814C3.07397 5.10577 3.07397 4.85672 3.24684 4.70436C3.41971 4.552 3.69807 4.552 3.86801 4.70436L14.9289 14.5346C15.4797 15.0239 16.2152 15.2964 17.0005 15.2964C17.7886 15.2964 18.5241 15.0269 19.0778 14.5346L30.1358 4.70436C30.3087 4.552 30.587 4.552 30.757 4.70436C30.9298 4.85672 30.9298 5.10577 30.757 5.25814L19.699 15.0884C18.9811 15.7272 18.023 16.0788 17.0005 16.0788Z" fill="#282315"/>
</g>
</svg>
