<svg width="41" height="31" viewBox="0 0 41 31" fill="none" xmlns="http://www.w3.org/2000/svg">
<path d="M25.4219 6.66772C28.1082 6.66772 30.2938 8.85044 30.2939 11.533C30.2939 14.2156 28.1083 16.3982 25.4219 16.3982C22.7355 16.3982 20.5498 14.2156 20.5498 11.533C20.5499 8.85045 22.7355 6.66774 25.4219 6.66772ZM25.4219 7.14917C23.0015 7.14919 21.0314 9.11572 21.0312 11.533C21.0312 13.9503 23.0014 15.9177 25.4219 15.9177C27.8423 15.9177 29.8125 13.9503 29.8125 11.533C29.8124 9.11571 27.8423 7.14917 25.4219 7.14917Z" fill="#282315" stroke="#282315" stroke-width="0.1"/>
<path d="M25.4218 14.347C23.8688 14.347 22.6055 13.0854 22.6055 11.5333C22.6055 11.373 22.7358 11.2429 22.8963 11.2429C23.0568 11.2429 23.1871 11.373 23.1871 11.5333C23.1871 12.7648 24.1899 13.7662 25.4218 13.7662C25.5824 13.7662 25.7126 13.8963 25.7126 14.0566C25.7126 14.2169 25.5824 14.347 25.4218 14.347Z" fill="#282315"/>
<path d="M34.9727 2.93604C37.1657 2.93604 38.95 4.71785 38.9502 6.90771C38.9502 9.09775 37.1658 10.8804 34.9727 10.8804C32.7795 10.8804 30.9951 9.09776 30.9951 6.90771C30.9953 4.71785 32.7796 2.93604 34.9727 2.93604ZM34.9727 3.41748C33.0456 3.41748 31.4768 4.98313 31.4766 6.90771C31.4766 8.83248 33.0454 10.3989 34.9727 10.3989C36.8999 10.3989 38.4688 8.83248 38.4688 6.90771C38.4685 4.98313 36.8997 3.41748 34.9727 3.41748Z" fill="#282315" stroke="#282315" stroke-width="0.1"/>
<path d="M34.9726 8.82775C33.9128 8.82775 33.0508 7.96692 33.0508 6.90859C33.0508 6.74828 33.1811 6.61816 33.3416 6.61816C33.5021 6.61816 33.6324 6.74828 33.6324 6.90859C33.6324 7.64745 34.2339 8.24689 34.9726 8.24689C35.1331 8.24689 35.2634 8.37701 35.2634 8.53732C35.2634 8.69764 35.1331 8.82775 34.9726 8.82775Z" fill="#282315"/>
<path d="M27.0361 0.0668945C28.4532 0.067089 29.6055 1.21825 29.6055 2.6333C29.6055 4.04835 28.4532 5.19951 27.0361 5.19971C25.6189 5.19971 24.4658 4.04847 24.4658 2.6333C24.4658 1.21813 25.6189 0.0668945 27.0361 0.0668945ZM27.0361 0.549316C25.8849 0.549316 24.9474 1.48446 24.9473 2.63428C24.9473 3.78418 25.8848 4.72021 27.0361 4.72021C28.1873 4.72002 29.124 3.78406 29.124 2.63428C29.1239 1.48458 28.1872 0.549511 27.0361 0.549316Z" fill="#282315" stroke="#282315" stroke-width="0.1"/>
<path d="M19.2987 30.9825C19.1482 30.9825 18.9977 30.9825 18.8472 30.9796L12.6368 30.8813C10.4344 30.8553 7.05718 29.7961 4.07638 28.8612C2.87394 28.4841 1.7366 28.1271 0.865517 27.9032C0.671621 27.854 0.555864 27.6561 0.605061 27.4639C0.654259 27.2703 0.852493 27.1546 1.04494 27.2038C1.93484 27.4321 3.08086 27.7919 4.29343 28.1719C7.08178 29.0462 10.5502 30.1343 12.6469 30.1588L18.8574 30.2571C23.686 30.3135 28.4075 29.4623 32.8859 27.7298L38.4554 25.581C38.9502 25.3888 39.3337 25.0218 39.5363 24.5464C39.7302 24.0912 39.7331 23.5869 39.5421 23.1288C39.2642 22.4612 38.5972 22.0003 37.8418 21.9526C37.7232 21.9468 37.619 21.9482 37.5177 21.9584L25.1112 23.1519C24.913 23.1722 24.735 23.0262 24.7162 22.8268C24.6974 22.6288 24.8421 22.4511 25.0418 22.4323L37.4468 21.2387C37.5843 21.2257 37.7218 21.2229 37.8824 21.2315C38.9141 21.2965 39.8257 21.9324 40.2091 22.8514C40.4754 23.4901 40.4725 24.1923 40.2004 24.8296C39.9212 25.4842 39.393 25.99 38.7158 26.2544L33.1449 28.4046C28.72 30.1155 24.0636 30.9825 19.2973 30.9825H19.2987Z" fill="#282315"/>
<path d="M16.3117 24.399C16.1801 24.399 16.0542 24.3267 15.9891 24.2025C15.8979 24.0247 15.9674 23.8065 16.1453 23.7155L22.7103 20.3472C23.2095 20.0625 23.538 19.6694 23.6349 19.2388C23.7247 18.8429 23.6219 18.4181 23.3369 18.0106C22.9954 17.5236 22.4325 17.2115 21.8306 17.1739C21.641 17.1623 21.4428 17.1797 21.2561 17.2245C21.2445 17.2274 21.2344 17.2288 21.2228 17.2303C17.7139 17.7158 15.542 18.3733 13.4409 19.0076C11.1446 19.7012 8.97552 20.3573 5.3103 20.7373C5.30451 20.7373 5.30016 20.7373 5.29437 20.7373L1.58719 20.9599C1.38751 20.9729 1.21677 20.8197 1.20374 20.6203C1.19217 20.4209 1.3441 20.2503 1.54378 20.2373L5.24373 20.0163C8.83516 19.6434 10.9709 18.999 13.2311 18.3155C15.3553 17.6739 17.5518 17.0106 21.1071 16.5164C21.3559 16.4601 21.6207 16.4384 21.874 16.4528C22.6944 16.502 23.4628 16.9297 23.9301 17.5958C24.3353 18.1753 24.4771 18.7981 24.3411 19.3978C24.1978 20.0307 23.7435 20.5914 23.0619 20.9786C23.0576 20.9815 23.0533 20.983 23.0489 20.9859L16.4767 24.3571C16.4232 24.3845 16.3667 24.3975 16.3117 24.3975V24.399Z" fill="#282315"/>
</svg>
