<svg width="40" height="39" viewBox="0 0 40 39" fill="none" xmlns="http://www.w3.org/2000/svg">
<path d="M9.64051 12.7435C9.58092 12.7435 9.51971 12.7295 9.46335 12.6982C9.26366 12.592 9.18155 12.3309 9.27978 12.1151C9.93199 10.6843 10.9031 9.73745 12.1688 9.30056C14.7632 8.40589 17.7521 9.96546 18.6072 10.465C20.6766 11.6747 25.1567 11.6765 26.8686 9.20308C27.603 8.14132 27.6931 6.55738 27.1037 5.07092C26.3694 3.21718 24.8234 1.96918 22.9714 1.73072C20.0824 1.35823 17.3398 1.98484 14.8179 3.59663C14.6263 3.71847 14.3799 3.65059 14.2672 3.44346C14.1545 3.23633 14.2173 2.97002 14.4089 2.84817C17.087 1.13717 20.0002 0.472269 23.068 0.867384C25.2099 1.14414 26.9958 2.58709 27.8445 4.72976C28.5467 6.50168 28.421 8.41634 27.5144 9.72526C26.6093 11.0342 25.0086 11.8714 23.0053 12.0855C21.2741 12.27 19.443 11.9428 18.2256 11.2326C17.4413 10.7748 14.7068 9.34233 12.4152 10.1326C11.3669 10.4946 10.5552 11.2918 10.0028 12.5015C9.93199 12.6547 9.79028 12.7452 9.64212 12.7452L9.64051 12.7435Z" fill="#282315"/>
<path d="M5.19346 9.56142C5.11777 9.56142 5.04211 9.5388 4.97447 9.4918C4.78766 9.36126 4.73452 9.09147 4.85691 8.88956C5.2112 8.30124 5.62506 7.74599 6.08725 7.23599C7.12596 6.09242 8.25809 5.1612 9.45301 4.47019C9.64948 4.35705 9.89263 4.43538 9.99731 4.64773C10.102 4.86008 10.0295 5.12291 9.83305 5.23605C8.7106 5.88703 7.64452 6.76429 6.66217 7.8452C6.23702 8.31342 5.85697 8.82341 5.53328 9.363C5.45598 9.4918 5.32713 9.56142 5.19508 9.56142H5.19346Z" fill="#282315"/>
<path d="M5.5181 29.4511C5.39732 29.4511 5.27654 29.392 5.19763 29.2806C2.57106 25.5592 0.902694 21.2234 0.501703 17.0755C0.0427382 12.3254 1.27952 8.18631 4.0784 5.1072C6.39739 2.55549 9.1238 0.881033 11.9645 0.264863C14.4446 -0.27298 16.9391 0.0142201 18.9892 1.0725C19.1905 1.17694 19.2742 1.43628 19.1792 1.65212C19.0825 1.86969 18.8426 1.9602 18.6429 1.85751C16.7474 0.879292 14.4333 0.616462 12.1224 1.11775C9.44104 1.69911 6.85797 3.28828 4.65333 5.7164C2.02837 8.60579 0.870483 12.5012 1.30368 16.985C1.69018 20.9762 3.30057 25.1554 5.83857 28.7532C5.97384 28.9446 5.94003 29.2179 5.76288 29.3624C5.69041 29.4233 5.60345 29.4511 5.51971 29.4511H5.5181Z" fill="#282315"/>
<path d="M7.94097 38.4153C7.8846 38.4153 7.82985 38.4136 7.77509 38.4101C7.6221 38.3996 7.48846 38.297 7.42887 38.1455C7.36929 37.9941 7.39504 37.8183 7.49327 37.693C7.67203 37.4684 8.22763 36.579 8.43215 35.4929C8.69626 34.0934 8.30978 32.8733 7.28234 31.8637C7.11808 31.7018 7.10517 31.4268 7.25493 31.2493C7.4047 31.0717 7.65915 31.0578 7.82341 31.2197C9.99746 33.3571 9.34848 35.9994 8.6077 37.451C10.9863 36.8366 14.9076 33.3241 16.5067 30.1875C16.6146 29.9769 16.8594 29.9003 17.0543 30.0169C17.2491 30.1336 17.32 30.3981 17.2121 30.6087C15.4326 34.0986 10.6883 38.4171 7.93774 38.4171L7.94097 38.4153Z" fill="#282315"/>
<path d="M24.3696 30.0135C24.1844 30.0135 24.0185 29.8743 23.9766 29.6707C23.669 28.1511 22.8075 25.629 21.801 25.3261C21.4386 25.2182 21.028 25.4201 20.5819 25.9301C18.8362 27.9248 17.4029 28.1929 16.5076 28.0676C15.6911 27.9527 14.989 27.4531 14.6266 26.7343C13.4977 24.4872 13.1193 24.1617 13.0291 24.1164C12.9341 24.0851 12.5782 24.1495 12.3656 24.1878C11.8003 24.2887 11.2158 24.3932 10.9758 23.918C10.8712 23.7091 10.8808 23.4393 10.8969 22.992C10.9259 22.1826 10.971 20.959 10.2495 20.3358C8.83883 19.1157 8.25102 16.1967 8.54411 14.8251C8.59403 14.5901 8.80983 14.4439 9.02723 14.4996C9.24464 14.5536 9.37832 14.7868 9.3284 15.0218C9.09167 16.1306 9.64723 18.7014 10.752 19.657C11.7907 20.5552 11.7343 22.1025 11.7005 23.0268C11.6957 23.1521 11.6908 23.2983 11.6908 23.4062C11.839 23.401 12.0758 23.3575 12.2336 23.3297C12.6378 23.2566 13.0178 23.1887 13.3045 23.3001C13.6845 23.4463 14.1757 24.0172 15.3336 26.3217C15.5172 26.689 15.9504 27.1137 16.6106 27.2077C17.6123 27.3487 18.8153 26.6838 19.9941 25.3348C20.6608 24.5724 21.3404 24.287 22.0136 24.4906C22.8107 24.7308 23.5176 25.6638 24.1151 27.2652C24.5354 28.3931 24.7496 29.4444 24.7593 29.4879C24.806 29.7229 24.6691 29.9544 24.4517 30.0048C24.4227 30.0118 24.3937 30.0153 24.3647 30.0153L24.3696 30.0135Z" fill="#282315"/>
<path d="M26.0703 38.9985C25.3955 38.9985 24.8641 38.7165 24.5629 38.5564C24.5549 38.5529 24.5485 38.5477 24.5404 38.5442C22.9171 37.5434 23.4953 35.3119 24.2666 33.6166C25.2973 31.3486 27.1299 29.3138 28.4682 27.8291C29.0833 27.145 29.8338 26.313 30.0158 25.9336C29.99 25.9301 29.9578 25.9266 29.9191 25.9249C27.6291 25.7961 24.5646 23.6726 24.4341 23.582C24.2473 23.4515 24.1942 23.1817 24.315 22.9798C24.4357 22.7779 24.6853 22.7205 24.8722 22.851C24.9028 22.8719 27.8868 24.9397 29.961 25.0563C30.4167 25.0824 30.7034 25.2513 30.8161 25.5611C31.0513 26.2103 30.3813 26.9553 29.0447 28.4366C27.7451 29.8795 25.964 31.8568 24.9897 34.0012C24.0943 35.9716 24.0734 37.244 24.9301 37.7836C25.4164 38.0412 25.9946 38.2866 26.7144 38.0046C27.8288 37.5642 28.9384 36.0047 30.0125 33.3642C31.2316 30.3704 32.8163 26.6438 34.3494 23.039C35.9243 19.3367 37.4124 15.8399 38.1403 13.974C39.3513 10.867 38.3464 10.3344 32.7712 7.38235L32.0304 6.98897C31.8307 6.8828 31.7485 6.62171 31.8468 6.40587C31.945 6.19004 32.1866 6.10127 32.3863 6.20745L33.1271 6.60082C38.7055 9.55635 40.39 10.4475 38.8843 14.3117C38.1515 16.1915 36.6619 19.6936 35.0837 23.4028C33.5522 27.0041 31.9676 30.7272 30.7517 33.714C29.5697 36.6191 28.341 38.2901 26.993 38.8209C26.6661 38.9497 26.3569 39.0002 26.0735 39.0002L26.0703 38.9985Z" fill="#282315"/>
<path d="M30.3817 22.8752C30.3221 22.8752 30.2609 22.8613 30.2046 22.8299L26.0883 20.6438C25.8887 20.5376 25.8065 20.2765 25.9048 20.0607C26.003 19.8448 26.2446 19.7561 26.4443 19.8622L30.5604 22.0484C30.7601 22.1546 30.8423 22.4157 30.7441 22.6315C30.6748 22.7847 30.5315 22.8752 30.3817 22.8752Z" fill="#282315"/>
<path d="M31.9696 19.3855C31.91 19.3855 31.8488 19.3715 31.7924 19.3402L27.6762 17.154C27.4765 17.0478 27.3944 16.7867 27.4927 16.5709C27.5909 16.3551 27.8324 16.2663 28.0321 16.3725L32.1483 18.5587C32.348 18.6648 32.4301 18.9259 32.3319 19.1418C32.2627 19.2949 32.1193 19.3855 31.9696 19.3855Z" fill="#282315"/>
<path d="M33.5555 15.8952C33.4959 15.8952 33.4347 15.8813 33.3784 15.85L29.2622 13.6638C29.0625 13.5576 28.9804 13.2965 29.0786 13.0807C29.1768 12.8648 29.4184 12.7761 29.6181 12.8823L33.7343 15.0684C33.934 15.1746 34.0161 15.4357 33.9179 15.6515C33.8486 15.8047 33.7053 15.8952 33.5555 15.8952Z" fill="#282315"/>
<path d="M35.1415 12.4055C35.0819 12.4055 35.0207 12.3916 34.9643 12.3602L30.8481 10.174C30.6484 10.0679 30.5663 9.80677 30.6645 9.59094C30.7628 9.3751 31.0043 9.28633 31.204 9.39251L35.3202 11.5787C35.5199 11.6849 35.6021 11.946 35.5038 12.1618C35.4346 12.315 35.2912 12.4055 35.1415 12.4055Z" fill="#282315"/>
</svg>
