<svg width="50" height="50" viewBox="0 0 50 50" fill="none" xmlns="http://www.w3.org/2000/svg">
<path d="M32.6727 34.5496C32.4055 34.5496 32.0848 34.4427 31.8711 34.229L27.7022 30.3812C27.4885 30.1675 27.3281 29.9003 27.3281 29.5796C27.3281 29.259 27.435 28.9918 27.6488 28.7246L28.2902 28.0298C28.5039 27.8161 28.7712 27.6558 29.0918 27.6558C29.4125 27.6558 29.6798 27.7626 29.947 27.9764L34.1158 31.8241C34.5968 32.2517 34.6503 32.9998 34.1158 33.4808L33.4744 34.1755C33.2607 34.3893 32.9934 34.5496 32.6727 34.5496ZM29.1453 28.297C28.985 28.297 28.8781 28.3505 28.7712 28.4574L28.1298 29.1521C28.0229 29.259 27.9695 29.4193 27.9695 29.5796C27.9695 29.7399 27.9695 29.8468 28.1298 29.9537L32.2986 33.8014C32.4055 33.9083 32.5659 33.9618 32.7262 33.9618C32.8865 33.9618 32.9934 33.9618 33.1003 33.8014L33.7417 33.1067C33.9555 32.8929 33.9555 32.5189 33.7417 32.3051L29.5729 28.4574C29.466 28.3505 29.3591 28.297 29.1987 28.297H29.1453Z" fill="#A38B51"/>
<path d="M21.8651 30.1621C20.0906 30.1621 18.3055 29.5261 16.8946 28.2328C13.8962 25.4913 13.6824 20.8206 16.4296 17.8226C19.1714 14.8246 23.8426 14.6162 26.8409 17.3577C29.8392 20.0992 30.0477 24.7699 27.3059 27.7679C25.8521 29.3551 23.8639 30.1621 21.8651 30.1621ZM21.8704 16.0377C20.0372 16.0377 18.2093 16.7752 16.8785 18.2341C14.3559 20.9863 14.5483 25.2722 17.3007 27.7893C20.0532 30.3063 24.3396 30.114 26.8569 27.3618C29.3742 24.6096 29.1818 20.3236 26.4294 17.8066C25.136 16.6202 23.5005 16.0377 21.8651 16.0377H21.8704Z" fill="#A38B51"/>
<circle cx="24.5" cy="24.5" r="16.2" stroke="#A38B51" stroke-width="0.6"/>
</svg>
