<svg width="40" height="33" viewBox="0 0 40 33" fill="none" xmlns="http://www.w3.org/2000/svg">
<g id="Group">
<path id="Vector" d="M33.9761 11.8618C33.9369 11.8618 33.8977 11.8559 33.8585 11.844C33.661 11.7803 33.5525 11.5714 33.6173 11.3774L35.4899 5.74466C35.4899 5.74466 35.4929 5.73874 35.4929 5.73429C35.9995 4.34612 35.3708 2.83942 34.0621 2.30608L33.0293 1.88385C31.7236 1.35051 30.1933 1.9757 29.5481 3.30906C29.5481 3.31202 29.545 3.31499 29.5435 3.31795L25.2104 11.6603C25.1154 11.8426 24.8878 11.9152 24.7038 11.8218C24.5184 11.7285 24.4445 11.5063 24.5395 11.324L28.8711 2.98609C29.6913 1.30013 31.6453 0.516418 33.3203 1.20088L34.3531 1.6231C36.0311 2.30756 36.8438 4.22019 36.206 5.98022L34.335 11.6085C34.2837 11.764 34.136 11.8633 33.9761 11.8633V11.8618Z" fill="#282315"/>
<path id="Vector_2" d="M26.218 32.9984H17.6347C14.1685 32.9984 10.8983 31.2117 9.10266 28.3347C8.50109 27.3746 7.95832 26.3183 7.44118 25.1064C7.36128 24.9183 7.45174 24.7005 7.64322 24.622C7.8347 24.5435 8.05632 24.6324 8.13623 24.8205C8.63829 25.9968 9.16448 27.0206 9.74494 27.948C11.4049 30.6073 14.4278 32.2592 17.6347 32.2592H26.218C29.4249 32.2592 32.4478 30.6073 34.1047 27.948C35.8974 25.0783 37.2271 21.2945 38.4167 15.6781C38.4936 15.3122 38.3986 14.9344 38.1589 14.644C37.9207 14.3581 37.5694 14.1936 37.194 14.1936H22.6538C22.4457 14.1936 22.2769 14.0277 22.2769 13.8233C22.2769 13.6188 22.4457 13.4529 22.6538 13.4529H37.194C37.7971 13.4529 38.3624 13.7166 38.7439 14.1759C39.1284 14.6396 39.2791 15.2411 39.1555 15.8277C37.9463 21.533 36.5879 25.3909 34.7485 28.3361C32.9559 31.2132 29.6872 32.9999 26.2195 32.9999L26.218 32.9984Z" fill="#282315"/>
<path id="Vector_3" d="M25.8008 30.2756C25.5927 30.2756 25.4238 30.1097 25.4238 29.9052C25.4238 29.7008 25.5927 29.5348 25.8008 29.5348C28.1045 29.5348 30.2711 28.3541 31.4561 26.4518C31.5647 26.277 31.7968 26.2222 31.9747 26.3289C32.1527 26.4355 32.2084 26.6637 32.0999 26.8385C30.7791 28.9585 28.3653 30.2756 25.8023 30.2756H25.8008Z" fill="#282315"/>
<path id="Vector_4" d="M13.7364 23.0253C13.5615 23.0253 13.3866 23.0149 13.2132 22.9956C12.1623 22.8741 11.2381 22.4001 10.5778 21.6489C9.15752 23.2445 6.59595 23.4771 4.68872 22.1245C3.71626 21.4356 3.05438 20.44 2.82521 19.323C2.62167 18.3303 2.78149 17.3451 3.2745 16.5096C2.37592 16.1214 1.65524 15.4192 1.22253 14.4992C0.73555 13.4651 0.672227 12.2784 1.04312 11.1569C1.77284 8.95832 3.98011 7.66052 6.08635 8.12423C6.26426 5.99234 8.2137 4.30786 10.5853 4.30786C12.9569 4.30786 14.9033 5.99234 15.0812 8.12423C17.1875 7.65904 19.3963 8.95684 20.1245 11.1569C20.4954 12.2769 20.432 13.4636 19.9451 14.4992C19.5124 15.4207 18.7902 16.1229 17.8886 16.5111C18.962 18.3289 18.3876 20.7689 16.5015 22.123C15.6813 22.7127 14.7149 23.0253 13.7379 23.0253H13.7364ZM10.5009 20.7778C10.5235 20.7778 10.5446 20.7793 10.5672 20.7837L10.7466 20.8148C10.8416 20.8311 10.9276 20.8845 10.9848 20.9615C11.5261 21.6889 12.3478 22.1497 13.3007 22.2593C14.2626 22.3704 15.2411 22.1097 16.0552 21.5245C17.7272 20.3245 18.175 18.117 17.0518 16.6059C16.9704 16.4962 16.9568 16.3511 17.0156 16.2281L17.0593 16.1377C17.1031 16.0459 17.1845 15.9762 17.284 15.9436C18.1569 15.6651 18.858 15.0414 19.2606 14.1866C19.6676 13.3228 19.7189 12.3273 19.4068 11.385C18.7675 9.45018 16.7729 8.34498 14.9606 8.92425C14.8234 8.96721 14.6727 8.93166 14.5731 8.82943L14.4465 8.70054C14.3787 8.63091 14.341 8.53906 14.341 8.44276C14.341 6.57013 12.6554 5.04862 10.5853 5.04862C8.51524 5.04862 6.82662 6.57161 6.82662 8.44276C6.82662 8.53758 6.78893 8.62794 6.7241 8.69758L6.60047 8.82647C6.50096 8.93017 6.34869 8.9687 6.20998 8.92425C4.39774 8.34646 2.40306 9.45167 1.76078 11.3865C1.44869 12.3288 1.50146 13.3228 1.90853 14.1881C2.31109 15.0429 3.01216 15.6666 3.88361 15.9451C3.99819 15.9822 4.08866 16.0696 4.12635 16.1836L4.15801 16.2814C4.1957 16.394 4.1761 16.517 4.10524 16.6133C3.5685 17.3451 3.37552 18.2563 3.56549 19.1793C3.75696 20.1126 4.31179 20.9467 5.13047 21.526C6.80853 22.7171 9.08213 22.4504 10.1978 20.9348C10.2687 20.8371 10.3833 20.7808 10.5039 20.7808L10.5009 20.7778Z" fill="#282315"/>
<path id="Vector_5" d="M10.5825 16.8217C8.81246 16.8217 7.37109 15.4069 7.37109 13.6661C7.37109 11.9253 8.81095 10.5105 10.5825 10.5105C12.354 10.5105 13.7939 11.9253 13.7939 13.6661C13.7939 15.4069 12.354 16.8217 10.5825 16.8217ZM10.5825 11.2513C9.22707 11.2513 8.12494 12.3342 8.12494 13.6661C8.12494 14.998 9.22707 16.081 10.5825 16.081C11.9379 16.081 13.04 14.998 13.04 13.6661C13.04 12.3342 11.9379 11.2513 10.5825 11.2513Z" fill="#282315"/>
</g>
</svg>
