<svg width="58" height="39" viewBox="0 0 58 39" fill="none" xmlns="http://www.w3.org/2000/svg">
<path d="M42.9752 17.8618C42.936 17.8618 42.8968 17.8559 42.8576 17.844C42.6601 17.7803 42.5515 17.5714 42.6163 17.3774L44.4889 11.7447C44.4889 11.7447 44.4919 11.7387 44.4919 11.7343C44.9985 10.3461 44.3698 8.83942 43.0611 8.30608L42.0283 7.88385C40.7227 7.35051 39.1924 7.9757 38.5471 9.30906C38.5471 9.31202 38.5441 9.31499 38.5425 9.31795L34.2094 17.6603C34.1145 17.8426 33.8868 17.9152 33.7029 17.8218C33.5174 17.7285 33.4435 17.5063 33.5385 17.324L37.8701 8.98609C38.6903 7.30013 40.6443 6.51642 42.3193 7.20088L43.3521 7.6231C45.0302 8.30756 45.8428 10.2202 45.2051 11.9802L43.334 17.6085C43.2827 17.764 43.135 17.8633 42.9752 17.8633V17.8618Z" fill="#282315"/>
<path d="M35.217 38.9984H26.6337C23.1675 38.9984 19.8973 37.2117 18.1017 34.3347C17.5001 33.3746 16.9573 32.3183 16.4402 31.1064C16.3603 30.9183 16.4508 30.7005 16.6422 30.622C16.8337 30.5435 17.0553 30.6324 17.1353 30.8205C17.6373 31.9968 18.1635 33.0206 18.744 33.948C20.4039 36.6073 23.4269 38.2592 26.6337 38.2592H35.217C38.4239 38.2592 41.4468 36.6073 43.1037 33.948C44.8964 31.0783 46.2262 27.2945 47.4157 21.6781C47.4926 21.3122 47.3977 20.9344 47.1579 20.644C46.9197 20.3581 46.5684 20.1936 46.193 20.1936H31.6528C31.4448 20.1936 31.2759 20.0277 31.2759 19.8233C31.2759 19.6188 31.4448 19.4529 31.6528 19.4529H46.193C46.7961 19.4529 47.3615 19.7166 47.7429 20.1759C48.1274 20.6396 48.2781 21.2411 48.1545 21.8277C46.9453 27.533 45.5869 31.3909 43.7475 34.3361C41.9549 37.2132 38.6862 38.9999 35.2185 38.9999L35.217 38.9984Z" fill="#282315"/>
<path d="M34.8008 36.2756C34.5927 36.2756 34.4238 36.1097 34.4238 35.9052C34.4238 35.7008 34.5927 35.5348 34.8008 35.5348C37.1045 35.5348 39.2711 34.3541 40.4561 32.4518C40.5647 32.277 40.7968 32.2222 40.9747 32.3289C41.1527 32.4355 41.2084 32.6637 41.0999 32.8385C39.7791 34.9585 37.3653 36.2756 34.8023 36.2756H34.8008Z" fill="#282315"/>
<path d="M22.7354 29.0253C22.5605 29.0253 22.3856 29.0149 22.2122 28.9956C21.1614 28.8741 20.2372 28.4001 19.5768 27.6489C18.1565 29.2445 15.595 29.4771 13.6877 28.1245C12.7153 27.4356 12.0534 26.44 11.8242 25.323C11.6207 24.3303 11.7805 23.3451 12.2735 22.5096C11.3749 22.1214 10.6543 21.4192 10.2216 20.4992C9.73457 19.4651 9.67125 18.2784 10.0421 17.1569C10.7719 14.9583 12.9791 13.6605 15.0854 14.1242C15.2633 11.9923 17.2127 10.3079 19.5843 10.3079C21.9559 10.3079 23.9024 11.9923 24.0803 14.1242C26.1865 13.659 28.3953 14.9568 29.1235 17.1569C29.4944 18.2769 29.4311 19.4636 28.9441 20.4992C28.5114 21.4207 27.7892 22.1229 26.8876 22.5111C27.9611 24.3289 27.3866 26.7689 25.5005 28.123C24.6803 28.7127 23.7139 29.0253 22.7369 29.0253H22.7354ZM19.4999 26.7778C19.5225 26.7778 19.5436 26.7793 19.5662 26.7837L19.7456 26.8148C19.8406 26.8311 19.9266 26.8845 19.9839 26.9615C20.5251 27.6889 21.3468 28.1497 22.2997 28.2593C23.2616 28.3704 24.2401 28.1097 25.0542 27.5245C26.7263 26.3245 27.174 24.117 26.0508 22.6059C25.9694 22.4962 25.9558 22.3511 26.0146 22.2281L26.0584 22.1377C26.1021 22.0459 26.1835 21.9762 26.283 21.9436C27.156 21.6651 27.857 21.0414 28.2596 20.1866C28.6667 19.3228 28.7179 18.3273 28.4058 17.385C27.7666 15.4502 25.7719 14.345 23.9597 14.9243C23.8225 14.9672 23.6717 14.9317 23.5722 14.8294L23.4455 14.7005C23.3777 14.6309 23.34 14.5391 23.34 14.4428C23.34 12.5701 21.6544 11.0486 19.5843 11.0486C17.5143 11.0486 15.8256 12.5716 15.8256 14.4428C15.8256 14.5376 15.788 14.6279 15.7231 14.6976L15.5995 14.8265C15.5 14.9302 15.3477 14.9687 15.209 14.9243C13.3968 14.3465 11.4021 15.4517 10.7598 17.3865C10.4477 18.3288 10.5005 19.3228 10.9076 20.1881C11.3101 21.0429 12.0112 21.6666 12.8826 21.9451C12.9972 21.9822 13.0877 22.0696 13.1254 22.1836L13.157 22.2814C13.1947 22.394 13.1751 22.517 13.1043 22.6133C12.5675 23.3451 12.3745 24.2563 12.5645 25.1793C12.756 26.1126 13.3108 26.9467 14.1295 27.526C15.8076 28.7171 18.0812 28.4504 19.1968 26.9348C19.2677 26.8371 19.3823 26.7808 19.5029 26.7808L19.4999 26.7778Z" fill="#282315"/>
<path d="M19.5825 22.8217C17.8125 22.8217 16.3711 21.4069 16.3711 19.6661C16.3711 17.9253 17.8109 16.5105 19.5825 16.5105C21.354 16.5105 22.7939 17.9253 22.7939 19.6661C22.7939 21.4069 21.354 22.8217 19.5825 22.8217ZM19.5825 17.2513C18.2271 17.2513 17.1249 18.3342 17.1249 19.6661C17.1249 20.998 18.2271 22.081 19.5825 22.081C20.9379 22.081 22.04 20.998 22.04 19.6661C22.04 18.3342 20.9379 17.2513 19.5825 17.2513Z" fill="#282315"/>
</svg>
