<svg width="58" height="39" viewBox="0 0 58 39" fill="none" xmlns="http://www.w3.org/2000/svg">
<path d="M41.7418 38.9999H16.2593C14.0793 38.9999 12.3037 37.4235 12.3037 35.4839V16.6408C12.3037 14.7011 14.0793 13.1248 16.2593 13.1248H41.7418C43.9217 13.1248 45.6973 14.7011 45.6973 16.6408V35.4839C45.6973 37.4235 43.9217 38.9999 41.7418 38.9999ZM16.2593 13.9041C14.5628 13.9041 13.1827 15.1318 13.1827 16.6408V35.4839C13.1827 36.9928 14.5628 38.2205 16.2593 38.2205H41.7418C43.4383 38.2205 44.8183 36.9928 44.8183 35.4839V16.6408C44.8183 15.1318 43.4383 13.9041 41.7418 13.9041H16.2593Z" fill="#282315"/>
<path d="M15.5565 34.5343C15.4451 34.5343 15.3308 34.4962 15.2459 34.42C15.073 34.2677 15.073 34.0186 15.2459 33.8662L22.3483 27.552C22.5211 27.3997 22.7995 27.3997 22.9694 27.552C23.1423 27.7044 23.1423 27.9534 22.9694 28.1058L15.867 34.42C15.7821 34.4962 15.6678 34.5343 15.5565 34.5343Z" fill="#282315"/>
<path d="M42.445 34.5343C42.3337 34.5343 42.2194 34.4962 42.1344 34.42L35.0349 28.1058C34.8621 27.9534 34.8621 27.7044 35.0349 27.552C35.2078 27.3997 35.4862 27.3997 35.6561 27.552L42.7556 33.8662C42.9284 34.0186 42.9284 34.2677 42.7556 34.42C42.6706 34.4962 42.5563 34.5343 42.445 34.5343Z" fill="#282315"/>
<path d="M29.0014 29.0788C27.9818 29.0788 27.0236 28.7272 26.3087 28.0884L15.2478 18.2581C15.0749 18.1058 15.0749 17.8567 15.2478 17.7044C15.4207 17.552 15.699 17.552 15.869 17.7044L26.9299 27.5346C27.4807 28.0239 28.2162 28.2964 29.0014 28.2964C29.7896 28.2964 30.525 28.0269 31.0788 27.5346L42.1368 17.7044C42.3096 17.552 42.588 17.552 42.7579 17.7044C42.9308 17.8567 42.9308 18.1058 42.7579 18.2581L31.7 28.0884C30.9821 28.7272 30.024 29.0788 29.0014 29.0788Z" fill="#282315"/>
</svg>
