<svg width="39" height="39" viewBox="0 0 39 39" fill="none" xmlns="http://www.w3.org/2000/svg">
<g id="Group">
<path id="Vector" d="M17.0253 38.9999C12.2101 38.9999 7.53123 38.4555 3.49497 37.4251C1.72174 36.9725 0.484375 35.4794 0.484375 33.7926V21.3471C0.484375 19.6619 1.72174 18.1672 3.49497 17.7113C4.70474 17.404 5.97713 17.1384 7.27529 16.923C7.52571 16.8812 7.76512 17.0315 7.81115 17.2587C7.85719 17.4858 7.69146 17.7029 7.44104 17.7447C6.16866 17.9568 4.92572 18.2156 3.74357 18.5162C2.36624 18.8703 1.40505 20.0344 1.40505 21.3471V33.7926C1.40505 35.107 2.36808 36.271 3.74542 36.6217C7.70066 37.6321 12.293 38.1649 17.0253 38.1649C21.7576 38.1649 26.3536 37.6305 30.3089 36.6217C31.6862 36.271 32.6492 35.107 32.6492 33.7926V21.3471C32.6492 20.0327 31.6862 18.8686 30.3089 18.5146C29.6515 18.3492 29.0512 18.2106 28.4767 18.0937C28.2281 18.0436 28.0734 17.8198 28.1287 17.5944C28.1839 17.3689 28.4307 17.2286 28.6792 17.2787C29.2685 17.399 29.8835 17.5392 30.5574 17.7096C32.3325 18.1655 33.5699 19.6603 33.5699 21.3454V33.7909C33.5699 35.4777 32.3307 36.9725 30.5593 37.4234C26.5248 38.4538 21.8441 38.9983 17.0271 38.9983L17.0253 38.9999Z" fill="#282315"/>
<path id="Vector_2" d="M17.0276 35.3724C13.2215 35.3724 9.46328 35.0034 6.16172 34.3036C5.17291 34.0948 4.48242 33.3015 4.48242 32.3746V29.6724C4.48242 29.4419 4.68865 29.2549 4.94276 29.2549C5.19687 29.2549 5.4031 29.4419 5.4031 29.6724V32.3746C5.4031 32.9107 5.80084 33.37 6.36982 33.4902C9.60324 34.175 13.2896 34.5374 17.0257 34.5374C21.2995 34.5374 25.4353 34.0714 28.9891 33.1896C29.234 33.1278 29.4881 33.2598 29.5544 33.4819C29.6206 33.704 29.477 33.9345 29.2321 33.9946C25.601 34.8948 21.3806 35.3708 17.0257 35.3708L17.0276 35.3724Z" fill="#282315"/>
<path id="Vector_3" d="M17.4443 23.6221C13.4493 23.6221 10.1992 20.4522 10.1992 16.5559C10.1992 12.6596 13.4493 9.48975 17.4443 9.48975C21.4393 9.48975 24.6895 12.6596 24.6895 16.5559C24.6895 20.4522 21.4393 23.6221 17.4443 23.6221ZM17.4443 10.3248C13.9219 10.3248 11.0554 13.1205 11.0554 16.5559C11.0554 19.9913 13.9219 22.787 17.4443 22.787C20.9667 22.787 23.8333 19.9913 23.8333 16.5559C23.8333 13.1205 20.9667 10.3248 17.4443 10.3248Z" fill="#282315"/>
<path id="Vector_4" d="M17.9892 20.6007C15.531 20.6007 13.5312 18.787 13.5312 16.5557C13.5312 16.3252 13.7375 16.1382 13.9916 16.1382C14.2457 16.1382 14.4519 16.3252 14.4519 16.5557C14.4519 18.326 16.0392 19.7656 17.9892 19.7656C18.2433 19.7656 18.4495 19.9527 18.4495 20.1832C18.4495 20.4136 18.2433 20.6007 17.9892 20.6007Z" fill="#282315"/>
<path id="Vector_5" d="M32.624 15.6887C29.3764 15.6887 26.7344 13.0951 26.7344 9.90687C26.7344 6.71866 29.3764 4.125 32.624 4.125C35.8716 4.125 38.5137 6.71866 38.5137 9.90687C38.5137 13.0951 35.8716 15.6887 32.624 15.6887ZM32.624 4.96005C29.8459 4.96005 27.585 7.1796 27.585 9.90687C27.585 12.6341 29.8459 14.8537 32.624 14.8537C35.4021 14.8537 37.6631 12.6341 37.6631 9.90687C37.6631 7.1796 35.4021 4.96005 32.624 4.96005Z" fill="#282315"/>
<path id="Vector_6" d="M33.1103 12.6658C31.4328 12.6658 30.0684 11.4282 30.0684 9.90678C30.0684 9.67631 30.2746 9.48926 30.5287 9.48926C30.7828 9.48926 30.989 9.67631 30.989 9.90678C30.989 10.969 31.941 11.8307 33.1103 11.8307C33.3644 11.8307 33.5706 12.0178 33.5706 12.2483C33.5706 12.4787 33.3644 12.6658 33.1103 12.6658Z" fill="#282315"/>
<path id="Vector_7" d="M20.1729 7.52211C18.0901 7.52211 16.3965 5.83531 16.3965 3.76105C16.3965 1.6868 18.0901 0 20.1729 0C22.2556 0 23.9492 1.6868 23.9492 3.76105C23.9492 5.83531 22.2556 7.52211 20.1729 7.52211ZM20.1729 0.836719C18.553 0.836719 17.2349 2.14942 17.2349 3.76273C17.2349 5.37604 18.553 6.68872 20.1729 6.68872C21.7927 6.68872 23.1108 5.37604 23.1108 3.76273C23.1108 2.14942 21.7927 0.836719 20.1729 0.836719Z" fill="#282315"/>
</g>
</svg>
