<svg width="58" height="39" viewBox="0 0 58 39" fill="none" xmlns="http://www.w3.org/2000/svg">
<path d="M20.5084 28.2856C20.2251 28.2498 19.9091 28.1759 19.5593 28.0498C18.2474 27.5765 16.8221 26.5065 15.3233 24.8679C13.8061 23.2084 13.2072 21.3761 13.6369 19.7078C14.0417 18.1414 15.3287 16.8657 17.0795 16.2975C18.9335 15.696 20.5633 16.5709 21.6685 18.7623C22.3843 20.1799 22.8701 22.1246 23.003 24.0973C23.0616 24.9622 23.0438 25.7556 22.9527 26.3929C22.8467 27.1366 22.6515 27.614 22.3563 27.8502C22.0561 28.0903 21.463 28.4062 20.5069 28.2854L20.5084 28.2856ZM18.5002 16.8942C18.121 16.8463 17.7197 16.8898 17.2992 17.0267C15.7954 17.5148 14.6943 18.5885 14.3562 19.8991C13.9945 21.3026 14.5312 22.8798 15.8667 24.3402C19.0922 27.8671 21.1795 27.8266 21.9035 27.246C22.127 27.0672 22.3859 25.9907 22.2612 24.155C22.1351 22.282 21.6776 20.4459 21.0075 19.1175C20.3229 17.7611 19.4831 17.0169 18.4989 16.8925L18.5002 16.8942Z" fill="#282315"/>
<path d="M18.9172 25.2433C18.7741 25.2252 18.6491 25.1229 18.6068 24.9708C18.2553 23.7074 16.877 21.2096 16.2281 20.6625C16.0695 20.5297 16.0477 20.2875 16.1793 20.1233C16.311 19.9592 16.545 19.9347 16.7034 20.0691C17.519 20.7561 18.9611 23.4489 19.3236 24.7555C19.3804 24.9588 19.2651 25.1714 19.0686 25.2315C19.0187 25.2468 18.9672 25.2511 18.9185 25.245L18.9172 25.2433Z" fill="#282315"/>
<path d="M26.8588 37.9532C25.3848 37.7669 24.0166 36.7427 22.9591 35.0162C21.7936 33.1123 21.1421 31.4232 21.0231 29.993C20.8856 28.3287 21.5168 27.5572 21.9054 27.2463C22.2006 27.0102 22.6959 26.9337 23.4205 27.0129C24.04 27.0804 24.7908 27.2603 25.5884 27.5326C27.4074 28.1564 29.1124 29.1243 30.2666 30.1925C32.0506 31.8409 32.4678 33.6873 31.4416 35.3899C30.4722 36.9993 28.9557 37.9679 27.3843 37.9825C27.2071 37.9848 27.0317 37.9735 26.8575 37.9515L26.8588 37.9532ZM23.4308 27.7852C22.8494 27.7117 22.4814 27.7532 22.3597 27.8506C21.6357 28.4312 21.0783 30.5051 23.5883 34.6044C24.6284 36.3025 25.9758 37.2298 27.3835 37.2177C28.6969 37.2044 29.9787 36.373 30.8116 34.9905C31.6483 33.6007 31.2974 32.1783 29.7686 30.7645C28.6868 29.7642 27.0767 28.8516 25.3494 28.2609C24.5721 27.9943 23.9234 27.849 23.4291 27.7865L23.4308 27.7852Z" fill="#282315"/>
<path d="M27.4204 35.3747C27.2979 35.3592 27.1863 35.2818 27.1301 35.1573C26.7765 34.3725 24.776 32.3739 23.6757 31.7096C23.4989 31.6022 23.4416 31.3679 23.5456 31.1848C23.6512 31.002 23.8793 30.9412 24.0563 31.047C25.1926 31.7344 27.3635 33.8442 27.8055 34.8301C27.8922 35.0218 27.811 35.2495 27.6241 35.3402C27.5586 35.3721 27.4885 35.3818 27.4206 35.3732L27.4204 35.3747Z" fill="#282315"/>
<path d="M13.0157 32.8555C12.9213 32.8436 12.8282 32.821 12.7377 32.7895C12.3864 32.6632 12.1001 32.3906 11.951 32.0396C11.551 31.1007 10.9637 29.9713 10.6498 29.3832C10.4609 29.0271 10.4319 28.6048 10.5715 28.2238C10.711 27.8429 11.0036 27.5446 11.3738 27.4029C12.2591 27.0637 14.6289 26.2477 17.4836 26.0307C17.6879 26.0148 17.8658 26.1732 17.8795 26.3851C17.8934 26.5954 17.7382 26.7797 17.5323 26.7954C14.7729 27.0059 12.4832 27.7934 11.6261 28.1223C11.4592 28.1862 11.3282 28.321 11.2648 28.4907C11.2026 28.662 11.2146 28.852 11.2993 29.0126C11.6192 29.6123 12.2173 30.7632 12.6288 31.7298C12.697 31.8898 12.8227 32.0108 12.9833 32.0681C13.1425 32.1253 13.3134 32.113 13.4632 32.0315C14.5663 31.4401 16.4123 30.5332 18.9534 29.3341C19.1415 29.2451 19.3616 29.3301 19.4454 29.5215C19.5306 29.713 19.4462 29.9418 19.2598 30.0295C16.7314 31.2225 14.895 32.1244 13.8032 32.7094C13.5587 32.8407 13.2811 32.8906 13.0111 32.8565L13.0157 32.8555Z" fill="#282315"/>
<path d="M18.3145 38.9293C18.0327 38.8937 17.7683 38.7676 17.5585 38.565C16.9682 37.9929 16.1106 37.1877 15.3869 36.6034C15.096 36.3673 14.9098 36.0132 14.8785 35.6323C14.8472 35.2513 14.9721 34.8685 15.2199 34.58C15.5396 34.2095 15.9313 33.743 16.3802 33.1925C16.3961 33.1729 16.4134 33.155 16.4334 33.139C16.5941 33.0064 16.8292 33.0315 16.9569 33.1959C17.0728 33.3465 17.061 33.5582 16.9372 33.6955C16.4869 34.2458 16.0949 34.7138 15.7734 35.0872C15.6594 35.218 15.6051 35.3873 15.6192 35.5606C15.6332 35.7338 15.7155 35.8895 15.8488 35.9975C16.5941 36.5999 17.4677 37.421 18.0704 38.0024C18.1998 38.1285 18.3752 38.1877 18.5531 38.1685C18.7311 38.1477 18.8869 38.0531 18.9887 37.9006C19.6536 36.9094 20.89 34.8718 21.709 32.3535C21.7748 32.1532 21.9852 32.0423 22.1806 32.1088C22.3746 32.175 22.4808 32.3908 22.4148 32.5926C21.5664 35.2014 20.2867 37.3092 19.5996 38.3332C19.3744 38.6678 19.0215 38.8858 18.6291 38.9305C18.5243 38.9419 18.418 38.9409 18.3161 38.928L18.3145 38.9293Z" fill="#282315"/>
<path d="M33.7593 34.7589C33.5897 34.7375 33.4516 34.5964 33.4374 34.4123C33.4205 34.2016 33.573 34.0154 33.7777 33.9965C35.9859 33.7951 38.5696 32.9104 39.6601 31.9806C39.833 31.8341 39.9202 31.6659 39.9355 31.45C39.9809 30.83 39.4497 29.8853 38.355 28.6423C38.2174 28.4859 38.23 28.2434 38.3828 28.102C38.5358 27.9591 38.7712 27.9704 38.9089 28.1268C40.1791 29.5696 40.7422 30.6419 40.6784 31.5022C40.6471 31.9277 40.4637 32.2877 40.1329 32.5687C38.9216 33.6006 36.2167 34.5426 33.8387 34.7597C33.8114 34.7624 33.7859 34.7623 33.7608 34.7591L33.7593 34.7589Z" fill="#282315"/>
<path d="M37.1099 27.2153C37.0317 27.2054 36.9567 27.1697 36.8969 27.1096C36.7015 26.9119 36.5287 26.7371 36.3874 26.5863C35.3129 25.4448 34.5603 24.0689 33.8321 22.7378C33.272 21.7138 32.6937 20.655 31.9635 19.6836C31.232 18.7106 30.3834 17.8695 29.5612 17.0564C28.4926 15.999 27.3882 14.9047 26.5826 13.5453C26.4675 13.353 26.3356 13.1154 26.1827 12.8427C25.4393 11.5128 24.0567 9.03764 22.9257 8.79427C22.7098 8.7469 22.5213 8.79106 22.3325 8.93251C21.1882 9.79057 19.7145 12.152 18.9758 14.308C18.6819 15.1624 18.53 15.9141 18.5385 16.4868C18.5417 16.6989 18.3771 16.8743 18.1728 16.8778C17.9668 16.8827 17.7977 16.7145 17.7958 16.5042C17.7863 15.8324 17.9473 15.0092 18.2759 14.0574C19.0714 11.737 20.6278 9.26707 21.8995 8.31388C22.2606 8.0428 22.6588 7.95253 23.085 8.04348C24.5399 8.35713 25.9191 10.8242 26.8311 12.4566C26.9815 12.7259 27.111 12.9585 27.2211 13.1424C27.9773 14.4183 28.9991 15.4312 30.0809 16.5026C30.9217 17.335 31.7903 18.1956 32.5539 19.2113C33.3174 20.2271 33.9105 21.3109 34.4827 22.3581C35.2194 23.7057 35.9158 24.9802 36.9241 26.0516C37.0589 26.1954 37.2291 26.3667 37.4204 26.5609C37.5666 26.7091 37.5676 26.9503 37.424 27.1021C37.3392 27.1918 37.222 27.2295 37.1113 27.2155L37.1099 27.2153Z" fill="#282315"/>
<path d="M24.0091 19.6884C23.9456 19.6804 23.8828 19.6555 23.8269 19.6113C23.665 19.4812 23.6369 19.2412 23.7645 19.0735C23.8167 19.0044 25.0646 17.3622 25.9188 16.4629C26.0624 16.3111 26.2983 16.3069 26.4445 16.4552C26.5908 16.6019 26.5931 16.8447 26.448 16.9963C25.6231 17.8654 24.3609 19.5258 24.3483 19.5428C24.2638 19.6542 24.133 19.7041 24.0076 19.6882L24.0091 19.6884Z" fill="#282315"/>
<path d="M40.3497 27.524C40.2479 27.5112 40.1515 27.4557 40.09 27.3614C39.974 27.1876 40.0191 26.9492 40.1888 26.8285C40.4916 26.615 40.7635 26.3496 40.9974 26.0408C41.4884 25.3938 41.7565 24.6366 41.7515 23.9052C41.7469 23.2063 41.49 22.6177 41.0286 22.2473C40.6992 21.9832 40.283 21.8487 39.8217 21.8568C39.6399 21.8601 39.4843 21.7277 39.452 21.5444C39.4197 21.3611 39.5221 21.1794 39.6922 21.1143C40.04 20.9837 40.3242 20.7755 40.5345 20.4993C40.8975 20.023 41.0125 19.3855 40.8585 18.7064C40.6965 17.9953 40.2653 17.3275 39.642 16.8269C39.5795 16.7758 39.5219 16.7329 39.4653 16.6949C39.294 16.579 39.2474 16.3429 39.3598 16.1655C39.4736 15.9883 39.7047 15.9388 39.8747 16.0529C39.9479 16.1024 40.0218 16.1581 40.1021 16.2223C40.8574 16.8291 41.3835 17.648 41.5827 18.5275C41.7898 19.439 41.6247 20.3065 41.1181 20.9701C41.0354 21.0786 40.9447 21.1799 40.8475 21.2727C41.0774 21.3636 41.2925 21.4881 41.4871 21.644C42.1296 22.1593 42.4871 22.96 42.4933 23.8955C42.4989 24.8 42.1746 25.7292 41.5795 26.5115C41.2988 26.8823 40.9707 27.2008 40.6036 27.4603C40.5248 27.5153 40.4337 27.5362 40.3466 27.5252L40.3497 27.524Z" fill="#282315"/>
<path d="M43.8363 26.6809C43.7227 26.6666 43.6173 26.5992 43.5579 26.4882C43.4597 26.3043 43.5253 26.07 43.7046 25.9675C44.2169 25.6738 44.6899 25.2531 45.0727 24.75C46.1636 23.3182 46.3406 21.4557 45.4958 20.3231C45.3715 20.1559 45.4019 19.9157 45.5653 19.7849C45.7286 19.6557 45.9617 19.6852 46.0875 19.8525C47.1361 21.258 46.9559 23.5141 45.658 25.2194C45.2069 25.8113 44.6716 26.2875 44.0639 26.6355C43.9926 26.6775 43.913 26.6906 43.8378 26.6811L43.8363 26.6809ZM43.4884 19.3988C43.3173 19.3772 43.1836 19.2367 43.167 19.06C43.1489 18.8832 43.2523 18.717 43.4143 18.6572L43.4346 18.6505C43.8691 18.486 44.2278 18.2223 44.4988 17.8688C44.9662 17.2543 45.1148 16.4341 44.9179 15.5611C44.7128 14.6576 44.1648 13.8097 43.374 13.1752C42.3384 12.3429 41.0288 12.0183 39.9555 12.326C39.7565 12.3827 39.5526 12.2643 39.499 12.0598C39.4452 11.8567 39.562 11.6444 39.761 11.5877C41.077 11.2102 42.6003 11.5757 43.8359 12.5692C44.7586 13.31 45.3999 14.3088 45.6437 15.3809C45.894 16.4847 45.6953 17.5349 45.0841 18.3383C44.7463 18.7807 44.2889 19.1261 43.758 19.3418C43.6926 19.3845 43.6148 19.4071 43.5346 19.4016C43.5181 19.401 43.5032 19.4007 43.4899 19.399L43.4884 19.3988Z" fill="#282315"/>
<path d="M34.1763 18.7116C34.0051 18.6899 33.8672 18.5474 33.8545 18.3634C33.8391 18.1529 33.9916 17.9667 34.1962 17.9493C34.8206 17.8954 35.4633 17.6259 36.0036 17.1936C36.5523 16.7547 36.9656 16.1766 37.1692 15.5627C37.4262 14.798 37.3406 14.0517 36.9377 13.5157C36.6823 13.176 36.3103 12.9405 35.8637 12.8331C35.6862 12.7905 35.5665 12.6225 35.5796 12.4356C35.5927 12.2488 35.7347 12.0983 35.9154 12.0795C36.2816 12.0408 36.6035 11.9131 36.8739 11.6954C37.3392 11.3232 37.6011 10.7337 37.6146 10.0339C37.6276 9.30175 37.3681 8.54435 36.8843 7.90076C35.9051 6.5982 34.306 6.17981 33.3204 6.96832C33.0502 7.18445 32.8485 7.47568 32.7212 7.83038C32.6585 8.00631 32.4847 8.11257 32.3033 8.07728C32.1246 8.04388 31.9966 7.88248 32.0009 7.69453C32.0112 7.22153 31.8827 6.79125 31.6273 6.45152C30.8688 5.4426 29.2157 5.45151 27.9416 6.47083C27.2812 6.99917 26.8198 7.73188 26.6789 8.47883C26.6391 8.687 26.4449 8.82467 26.243 8.78525C26.0411 8.74582 25.9105 8.54547 25.9486 8.33863C26.1244 7.41069 26.6864 6.50995 27.4886 5.8682C29.0879 4.58872 31.2086 4.64044 32.2175 5.98074C32.3689 6.18219 32.4879 6.40271 32.575 6.63927C32.6653 6.541 32.7625 6.44823 32.8676 6.36417C34.1784 5.3155 36.2452 5.79301 37.4746 7.42846C38.0611 8.20863 38.3754 9.13823 38.3599 10.0432C38.3434 10.9804 37.9769 11.7807 37.3299 12.2984C37.2248 12.3825 37.1133 12.458 36.9986 12.5238C37.199 12.6697 37.3777 12.8452 37.5278 13.0449C38.0874 13.7892 38.2121 14.7953 37.8727 15.8076C37.6231 16.5609 37.1202 17.2667 36.4564 17.7978C35.801 18.3221 35.0195 18.6466 34.2525 18.7135C34.2266 18.7164 34.1999 18.7145 34.1748 18.7114L34.1763 18.7116Z" fill="#282315"/>
<path d="M31.7286 13.7549C31.2505 13.6945 30.7961 13.4471 30.4791 13.0254C29.8451 12.1821 29.9995 10.961 30.8231 10.3034C31.647 9.64431 32.8318 9.79405 33.4643 10.6372C33.771 11.0452 33.9047 11.5534 33.8397 12.0674C33.7747 12.5814 33.5188 13.0403 33.1203 13.3592C32.7083 13.6887 32.2066 13.8154 31.7286 13.7549ZM32.1189 10.6665C31.8297 10.6299 31.5261 10.7074 31.2761 10.906C30.7775 11.3049 30.6843 12.0425 31.068 12.5529C31.4502 13.0632 32.1673 13.1538 32.666 12.7549C32.9078 12.5614 33.0613 12.2842 33.1007 11.9724C33.1401 11.6607 33.0589 11.3538 32.8743 11.1065C32.6831 10.8521 32.4083 10.7015 32.1176 10.6648L32.1189 10.6665Z" fill="#282315"/>
</svg>
