<svg width="59" height="39" viewBox="0 0 59 39" fill="none" xmlns="http://www.w3.org/2000/svg">
<path d="M35.6044 32.7767H23.3957C20.3586 32.7767 17.462 31.9353 15.0191 30.3413C12.5761 28.749 10.8137 26.5527 9.92241 23.9916L7.02175 15.6546C6.97559 15.52 7.00376 15.3748 7.09811 15.2614C7.19245 15.1481 7.34296 15.0825 7.50154 15.0825H38.0212C38.2982 15.0825 38.523 15.2809 38.523 15.5253C38.523 15.7697 38.2982 15.9681 38.0212 15.9681H8.18205L10.8839 23.7312C11.711 26.1099 13.349 28.1503 15.6173 29.6293C17.8856 31.1082 20.5754 31.8911 23.3957 31.8911H35.6044C38.4247 31.8911 41.1145 31.11 43.3828 29.6293C45.6511 28.1503 47.2871 26.1099 48.1161 23.7312L50.818 15.9681H43.6217C43.3447 15.9681 43.1198 15.7697 43.1198 15.5253C43.1198 15.2809 43.3447 15.0825 43.6217 15.0825H51.4985C51.6571 15.0825 51.8076 15.1498 51.902 15.2614C51.9963 15.373 52.0244 15.52 51.9782 15.6546L49.0777 23.9916C48.1864 26.5527 46.4239 28.749 43.981 30.3413C41.5381 31.9336 38.6415 32.7767 35.6044 32.7767Z" fill="#282315"/>
<path d="M23.3968 29.5958C18.7618 29.5958 14.7331 26.9691 13.3721 23.0583C13.2898 22.8245 13.4404 22.5766 13.7054 22.5057C13.9703 22.4331 14.2514 22.5659 14.3317 22.7997C15.5622 26.335 19.2055 28.7119 23.3968 28.7119C23.6738 28.7119 23.8986 28.9103 23.8986 29.1547C23.8986 29.3992 23.6738 29.5975 23.3968 29.5975V29.5958Z" fill="#282315"/>
<path d="M13.3661 33.9173C13.2818 33.9173 13.1975 33.8978 13.1192 33.8588C12.8784 33.7384 12.7941 33.4674 12.9306 33.2548L15.0905 29.8984C15.227 29.6859 15.5341 29.6115 15.775 29.732C16.0158 29.8524 16.1001 30.1234 15.9636 30.3359L13.8038 33.6923C13.7114 33.8358 13.5408 33.9173 13.3661 33.9173Z" fill="#282315"/>
<path d="M45.6374 33.9173C45.4628 33.9173 45.2922 33.8358 45.1999 33.6923L43.0399 30.3359C42.9034 30.1234 42.9877 29.8524 43.2286 29.732C43.4695 29.6115 43.7767 29.6859 43.9132 29.8984L46.073 33.2548C46.2095 33.4674 46.1252 33.7384 45.8843 33.8588C45.806 33.8978 45.7217 33.9173 45.6374 33.9173Z" fill="#282315"/>
</svg>
