<svg width="40" height="40" viewBox="0 0 40 40" fill="none" xmlns="http://www.w3.org/2000/svg">
<circle cx="20" cy="20" r="19.7" stroke="#9C9792" stroke-width="0.6"/>
<path d="M14.3408 13.3402H16.3447C16.39 13.3404 16.4295 13.378 16.4297 13.4242C16.4297 13.473 16.3934 13.509 16.3447 13.5092H14.3408C13.7899 13.5092 13.3294 13.9213 13.2754 14.4681L11.8379 28.1302V28.1312C11.811 28.4067 11.8982 28.6831 12.0801 28.892L12.082 28.8939C12.271 29.103 12.5349 29.2181 12.8115 29.2181H27.1895C27.4666 29.2181 27.735 29.096 27.918 28.8929L27.9189 28.8939C28.0845 28.7107 28.1731 28.479 28.1699 28.2338L28.1631 28.1283L26.7256 14.4681V14.4672C26.6657 13.9228 26.2129 13.5092 25.6602 13.5092H25.1562C25.1109 13.5089 25.0723 13.4705 25.0723 13.4242C25.0725 13.3757 25.1078 13.3404 25.1562 13.3402H25.6602C26.2936 13.3402 26.8251 13.8145 26.8916 14.4476L28.3281 28.1097L28.3291 28.1107C28.3645 28.434 28.2583 28.7587 28.04 29.0023C27.8227 29.245 27.5137 29.3812 27.1836 29.3812H12.8174C12.5346 29.3812 12.2579 29.2732 12.0469 29.0863L11.96 29.0013C11.7423 28.7578 11.6366 28.4336 11.6719 28.1107L11.6729 28.1097L13.1094 14.4476C13.1759 13.8145 13.7074 13.3402 14.3408 13.3402Z" fill="#9C9792" stroke="#9C9792" stroke-width="0.3"/>
<path d="M17.8564 13.3402H23.6631C23.7084 13.3403 23.7478 13.3779 23.748 13.4242C23.748 13.473 23.7119 13.5091 23.6631 13.5092H17.8564C17.8111 13.5089 17.7725 13.4705 17.7725 13.4242C17.7727 13.3757 17.8079 13.3404 17.8564 13.3402Z" fill="#9C9792" stroke="#9C9792" stroke-width="0.3"/>
<path d="M19.998 7.52844C22.0566 7.52844 23.7362 9.20719 23.7363 11.2657V14.9132C23.7363 14.9568 23.701 14.9931 23.6572 14.9962C23.6142 14.9931 23.5781 14.9577 23.5781 14.9132V11.2657C23.578 9.29344 21.9762 7.69153 20.0039 7.69153C18.0316 7.69158 16.4298 9.29347 16.4297 11.2657V14.9132C16.4297 14.9587 16.3912 14.9982 16.3447 14.9982C16.2961 14.998 16.2607 14.9619 16.2607 14.9132V11.2657C16.2609 9.20168 17.9394 7.52856 19.998 7.52844Z" fill="#9C9792" stroke="#9C9792" stroke-width="0.3"/>
<path d="M16.1709 20.9664H23.8339" stroke="#9C9792" stroke-width="0.4" stroke-linecap="round"/>
<path d="M20.0039 17.1349L20.0039 24.7979" stroke="#9C9792" stroke-width="0.4" stroke-linecap="round"/>
</svg>
