<svg class="icon icon-hamburger" width="51" height="50" viewBox="0 0 51 50" fill="none" xmlns="http://www.w3.org/2000/svg">
<path d="M1 17H36.3984" stroke="#A38B51" stroke-linecap="round"/>
<path d="M1 25H36.3984" stroke="#A38B51" stroke-linecap="round"/>
<path d="M4.05122 43V36.952H4.81922L4.87922 37.864C5.06322 37.528 5.31922 37.268 5.64722 37.084C5.97522 36.9 6.33922 36.808 6.73922 36.808C7.03522 36.808 7.31122 36.852 7.56722 36.94C7.82322 37.028 8.04722 37.16 8.23922 37.336C8.43922 37.512 8.59522 37.74 8.70722 38.02C8.90722 37.644 9.18722 37.348 9.54722 37.132C9.91522 36.916 10.3072 36.808 10.7232 36.808C11.1872 36.808 11.5872 36.9 11.9232 37.084C12.2672 37.268 12.5352 37.548 12.7272 37.924C12.9192 38.3 13.0152 38.776 13.0152 39.352V43H12.1752V39.448C12.1752 38.808 12.0432 38.332 11.7792 38.02C11.5152 37.7 11.1472 37.54 10.6752 37.54C10.3552 37.54 10.0632 37.628 9.79922 37.804C9.53522 37.972 9.32722 38.22 9.17522 38.548C9.02322 38.868 8.94722 39.268 8.94722 39.748V43H8.10722V39.448C8.10722 38.808 7.97522 38.332 7.71122 38.02C7.45522 37.7 7.09122 37.54 6.61922 37.54C6.29122 37.54 5.99522 37.628 5.73122 37.804C5.47522 37.972 5.27122 38.224 5.11922 38.56C4.96722 38.888 4.89122 39.296 4.89122 39.784V43H4.05122ZM17.1901 43.144C16.6301 43.144 16.1341 43.012 15.7021 42.748C15.2781 42.484 14.9421 42.116 14.6941 41.644C14.4541 41.164 14.3341 40.604 14.3341 39.964C14.3341 39.324 14.4541 38.768 14.6941 38.296C14.9341 37.824 15.2701 37.46 15.7021 37.204C16.1421 36.94 16.6461 36.808 17.2141 36.808C17.7981 36.808 18.2901 36.94 18.6901 37.204C19.0981 37.468 19.4061 37.812 19.6141 38.236C19.8301 38.66 19.9381 39.124 19.9381 39.628C19.9381 39.708 19.9381 39.792 19.9381 39.88C19.9381 39.96 19.9341 40.056 19.9261 40.168H14.9701V39.46H19.1221C19.1061 38.844 18.9141 38.368 18.5461 38.032C18.1861 37.696 17.7301 37.528 17.1781 37.528C16.8181 37.528 16.4821 37.612 16.1701 37.78C15.8661 37.94 15.6181 38.18 15.4261 38.5C15.2421 38.812 15.1501 39.208 15.1501 39.688V40C15.1501 40.544 15.2461 40.996 15.4381 41.356C15.6301 41.716 15.8821 41.984 16.1941 42.16C16.5141 42.336 16.8461 42.424 17.1901 42.424C17.6461 42.424 18.0221 42.324 18.3181 42.124C18.6141 41.916 18.8261 41.632 18.9541 41.272H19.7821C19.6781 41.624 19.5101 41.944 19.2781 42.232C19.0541 42.52 18.7661 42.744 18.4141 42.904C18.0621 43.064 17.6541 43.144 17.1901 43.144ZM21.3129 43V36.952H22.0809L22.1289 38.032C22.3209 37.648 22.5969 37.348 22.9569 37.132C23.3249 36.916 23.7329 36.808 24.1809 36.808C24.6449 36.808 25.0489 36.9 25.3929 37.084C25.7369 37.268 26.0049 37.548 26.1969 37.924C26.3889 38.292 26.4849 38.764 26.4849 39.34V43H25.6449V39.436C25.6449 38.796 25.5049 38.32 25.2249 38.008C24.9449 37.696 24.5449 37.54 24.0249 37.54C23.6729 37.54 23.3529 37.628 23.0649 37.804C22.7849 37.972 22.5609 38.22 22.3929 38.548C22.2329 38.876 22.1529 39.28 22.1529 39.76V43H21.3129ZM30.2587 43.144C29.8027 43.144 29.3987 43.056 29.0467 42.88C28.7027 42.696 28.4347 42.42 28.2427 42.052C28.0507 41.676 27.9547 41.196 27.9547 40.612V36.952H28.7947V40.516C28.7947 41.156 28.9347 41.632 29.2147 41.944C29.5027 42.256 29.8987 42.412 30.4027 42.412C30.7627 42.412 31.0827 42.328 31.3627 42.16C31.6507 41.992 31.8747 41.744 32.0347 41.416C32.2027 41.08 32.2867 40.672 32.2867 40.192V36.952H33.1267V43H32.3587L32.3107 41.92C32.1187 42.312 31.8387 42.616 31.4707 42.832C31.1107 43.04 30.7067 43.144 30.2587 43.144Z" fill="#A38B51"/>
</svg>
